<svg id="e8EVaGAwtRT1" xmlns="http://www.w3.org/2000/svg" xmlns:xlink="http://www.w3.org/1999/xlink" viewBox="0 0 1372.310000 2490.110000" shape-rendering="geometricPrecision" text-rendering="geometricPrecision"><style><![CDATA[#e8EVaGAwtRT5_ts {animation: e8EVaGAwtRT5_ts__ts 6000ms linear 1 normal forwards}@keyframes e8EVaGAwtRT5_ts__ts { 0% {transform: translate(-5.280000px,-4.910000px) scale(1,0.054436)} 28.333333% {transform: translate(-5.280000px,-4.910000px) scale(1,0.999474)} 100% {transform: translate(-5.280000px,-4.910000px) scale(1,0.994566)}} #e8EVaGAwtRT5 {animation: e8EVaGAwtRT5_c_o 6000ms linear 1 normal forwards}@keyframes e8EVaGAwtRT5_c_o { 0% {opacity: 0} 20% {opacity: 1} 100% {opacity: 1}} #e8EVaGAwtRT8_to {animation: e8EVaGAwtRT8_to__to 6000ms linear 1 normal forwards}@keyframes e8EVaGAwtRT8_to__to { 0% {transform: translate(-3.780000px,-2435px)} 53.333333% {transform: translate(-3.780000px,-2435px)} 100% {transform: translate(-6.780000px,-7px)}} #e8EVaGAwtRT8 {animation: e8EVaGAwtRT8_c_o 6000ms linear 1 normal forwards}@keyframes e8EVaGAwtRT8_c_o { 0% {opacity: 0} 46.666667% {opacity: 0} 53.333333% {opacity: 1} 100% {opacity: 1}} #e8EVaGAwtRT9 {animation: e8EVaGAwtRT9_c_o 6000ms linear 1 normal forwards}@keyframes e8EVaGAwtRT9_c_o { 0% {opacity: 0} 46.666667% {opacity: 0} 53.333333% {opacity: 1} 100% {opacity: 1}} #e8EVaGAwtRT10_to {animation: e8EVaGAwtRT10_to__to 6000ms linear 1 normal forwards}@keyframes e8EVaGAwtRT10_to__to { 0% {transform: translate(215.089658px,4190.514876px)} 28.333333% {transform: translate(215.089658px,4190.514876px)} 46.666667% {transform: translate(-673.447399px,1694.433671px)} 100% {transform: translate(-673.447399px,1694.433671px)}} #e8EVaGAwtRT10 {animation: e8EVaGAwtRT10_c_o 6000ms linear 1 normal forwards}@keyframes e8EVaGAwtRT10_c_o { 0% {opacity: 0} 28.333333% {opacity: 1} 100% {opacity: 1}}]]></style><defs><radialGradient id="e8EVaGAwtRT9-fill" cx="0" cy="0" r="368.720000" spreadMethod="pad" gradientUnits="userSpaceOnUse" gradientTransform="matrix(0.23000000000000 -0.08000000000000 2.94000000000000 8.48000000000000 645.62180000000080 1235.57840000000033)"><stop id="e8EVaGAwtRT9-fill-0" offset="0%" stop-color="rgb(0,0,0)"/><stop id="e8EVaGAwtRT9-fill-1" offset="100%" stop-color="rgba(0,0,0,0)"/></radialGradient></defs><g id="e8EVaGAwtRT2"><g id="e8EVaGAwtRT3"><g id="e8EVaGAwtRT4"><g id="e8EVaGAwtRT5_ts" transform="translate(-5.280000,-4.910000) scale(1,0.054436)"><path id="e8EVaGAwtRT5" d="M888.150000,7.370000L887.150000,557.420000C887.150000,557.420000,870.780000,2453.130000,871.150000,2453.420000C871.520000,2453.710000,904.220000,2455.720000,943.840000,2457.680000C1063.670000,2463.570000,1212.310000,2476.340000,1325.270000,2490.420000C1351.460000,2493.700000,1373.720000,2495.330000,1375.360000,2494.020000C1377,2492.710000,1377.360000,1932.840000,1377,1249.540000L1376,7.370000Z" transform="translate(0,0)" opacity="0" fill="rgb(177,6,15)" stroke="rgb(0,0,0)" stroke-width="1" stroke-miterlimit="1"/></g><path id="e8EVaGAwtRT6" display="none" d="M5.780000,5.740000L5.780000,1249.240000C5.780000,1933.240000,6.430000,2493.400000,7.410000,2494.380000C8.390000,2495.360000,50.630000,2491.110000,101.710000,2485.540000C152.790000,2479.970000,223.180000,2472.770000,258.210000,2469.820000C311.900000,2465.240000,472.990000,2455.090000,491.320000,2454.760000C496.890000,2454.760000,497.220000,2426.930000,497.870000,1927.960000L498.870000,1401.160000C498.870000,1401.160000,501.800000,19.820000,500.160000,14.580000L496.890000,5.410000L5.780000,5.410000Z" transform="matrix(1 0 0 1 -5.28000000000000 -4.91000000000000)" fill="rgb(177,6,15)" stroke="rgb(0,0,0)" stroke-width="1" stroke-miterlimit="1"/><path id="e8EVaGAwtRT7" display="none" d="M888.150000,7.370000C888.150000,7.370000,870.790000,2453.130000,871.150000,2453.450000C871.510000,2453.770000,904.220000,2455.750000,943.840000,2457.710000C1063.670000,2463.600000,1212.310000,2476.370000,1325.270000,2490.450000C1351.460000,2493.730000,1373.720000,2495.360000,1375.360000,2494.050000C1377,2492.740000,1377.360000,1932.870000,1377,1249.570000L1376,7.370000Z" transform="matrix(1 0 0 1 -5.28000000000000 -4.91000000000000)" fill="rgb(177,6,15)" stroke="rgb(0,0,0)" stroke-width="1" stroke-miterlimit="1"/><g id="e8EVaGAwtRT8_to" transform="translate(-3.780000,-2435)"><path id="e8EVaGAwtRT8" d="M5.780000,5.740000L5.780000,1249.240000C5.780000,1933.240000,6.430000,2493.400000,7.410000,2494.380000C8.390000,2495.360000,50.630000,2491.110000,101.710000,2485.540000C152.790000,2479.970000,223.180000,2472.770000,258.210000,2469.820000C311.900000,2465.240000,472.990000,2455.090000,491.320000,2454.760000C496.890000,2454.760000,501.800000,19.820000,500.160000,14.580000L496.890000,5.410000L5.780000,5.410000Z" transform="translate(0,0)" opacity="0" fill="rgb(177,6,15)" stroke="rgb(0,0,0)" stroke-width="1" stroke-miterlimit="1"/></g><path id="e8EVaGAwtRT9" d="M5.780000,5.740000L5.780000,703.740000L497.550000,2008.140000C497.550000,1978.340000,497.550000,1961.970000,497.870000,1927.920000L498.870000,1401.120000L537.870000,1511.120000C753.960000,2124.030000,870.190000,2452.750000,870.870000,2453.400000C871.200000,2453.730000,903.940000,2455.700000,943.560000,2457.660000C1063.390000,2463.550000,1212.030000,2476.320000,1324.990000,2490.400000C1351.180000,2493.680000,1373.450000,2495.310000,1375.080000,2494C1376.080000,2493,1376.720000,2218.650000,1376.720000,1831.330000L887.490000,424.170000L887.160000,557.420000L886.160000,1107.470000L841,979.780000C796.800000,855,767.330000,771.550000,589.550000,269.300000C541.750000,134.080000,501.150000,19.820000,499.550000,14.580000L496.280000,5.410000L5.780000,5.410000L5.780000,5.740000Z" transform="matrix(1 0 0 1 -7.78000000000006 -5.41000000000000)" opacity="0" fill="url(#e8EVaGAwtRT9-fill)" stroke="none" stroke-width="1" stroke-miterlimit="1"/><g id="e8EVaGAwtRT10_to" transform="translate(215.089658,4190.514876)"><path id="e8EVaGAwtRT10" d="M5.780000,5.740000Q870.180000,2452.790000,870.830000,2453.440000C871.160000,2453.770000,903.900000,2455.740000,943.520000,2457.700000C1063.350000,2463.590000,1212.810000,2472.402958,1325.770000,2486.482958C1351.640000,2489.762958,1373.410000,2491.710000,1374.720000,2490.400000Q501.150000,19.820000,499.550000,14.580000L496.280000,5.410000L251,5.410000L5.780000,5.740000Z" transform="translate(667.667399,-1699.843671)" opacity="0" fill="rgb(229,9,20)" stroke="none" stroke-width="1" stroke-miterlimit="1"/></g></g></g></g></svg>