<svg id="Netflix_Logo_RGB" xmlns="http://www.w3.org/2000/svg" viewBox="0 0 1427 383.4"><defs><style>.cls-1{fill:#e50914;}</style></defs><title>Netflix</title><g id="Netflix_Logo_RGB-2" data-name="Netflix_Logo_RGB"><path class="cls-1" d="M1289.05,421.92q30.09,2.29,60.1,5V74.07h-60.1ZM322.37,291,244.11,74.07H187V457.43q30-4.26,60.09-8.18V240.78l69.59,199.91q32.83-3.81,65.78-7.2V74.07H322.37ZM440.25,427.9q83.07-7.54,166.92-12.4V356.28q-53.58,3.11-106.83,7.3V273.94c23.3-.23,54-.94,81.15-.6V214.12c-21.71-.05-56.61.31-81.15.62V133.82H607.17V74.07H440.25ZM645.69,133.81h62.89V410.69q30-1.14,60.09-1.9v-275h62.89V74.07H645.69Zm224.4,273.36h60.09V270.45h81.46V211.24H930.18V133.82h107.66V74.07H870.09ZM1614,74.07h-66l-43.51,100.85L1465.39,74.07h-65l69.87,180.21L1394,431.07q31.65,3.07,63.16,6.57l44.36-102.79,43.92,113.31q34.33,4.41,68.49,9.26l.1,0-78.28-201.9Zm-477.55,0h-60.09V410.11q81.92,2.82,163.15,8.24V359.14q-51.39-3.42-103.06-5.82Z" transform="translate(-187 -74.04)"/></g></svg>