<svg style="background:#0D7E80" viewBox="0 0 128 128" xmlns="http://www.w3.org/2000/svg"><g><path d="m84.762 126.25h-41.524a31.619 31.619 0 0 1 -30.933-38.171l11.363-53.645a41.226 41.226 0 0 1 40.332-32.684 41.226 41.226 0 0 1 40.332 32.684l11.368 53.645a31.619 31.619 0 0 1 -30.938 38.171z" fill="#565e75"/><path d="m38.958 101.111c4.784 8.184 14.2 13.755 25.042 13.755s20.258-5.571 25.042-13.755c-6.731-2.1-17.4-4.988-25.042-4.988s-18.311 2.891-25.042 4.988z" fill="#efedff"/><path d="m89.723 77.881a18.826 18.826 0 1 0 -25.723-27.155 18.828 18.828 0 1 0 -25.723 27.155 23.972 23.972 0 0 0 .681 23.23c6.731-2.1 17.4-4.988 25.042-4.988s18.311 2.891 25.042 4.988a23.972 23.972 0 0 0 .681-23.23z" fill="#d4d4ff"/><path d="m64 41.95a1.753 1.753 0 0 1 -.942-.275 25.01 25.01 0 0 0 -13.486-3.934 1.75 1.75 0 0 1 0-3.5 28.505 28.505 0 0 1 14.428 3.907 28.505 28.505 0 0 1 14.428-3.907 1.75 1.75 0 0 1 0 3.5 25.01 25.01 0 0 0 -13.486 3.934 1.753 1.753 0 0 1 -.942.275z" fill="#404656"/><g fill="#565e75"><path d="m50.031 88.955a1.749 1.749 0 0 1 -1.75-1.75v-1.936a4.805 4.805 0 0 1 7.586-3.917l1.058.75a1.75 1.75 0 1 1 -2.025 2.855l-1.059-.751a1.306 1.306 0 0 0 -2.061 1.063v1.936a1.749 1.749 0 0 1 -1.749 1.75z"/><path d="m77.969 88.955a1.749 1.749 0 0 1 -1.75-1.75v-1.936a1.3 1.3 0 0 0 -2.059-1.064l-1.061.752a1.75 1.75 0 1 1 -2.024-2.857l1.06-.751a4.8 4.8 0 0 1 7.584 3.918v1.936a1.75 1.75 0 0 1 -1.75 1.752z"/><path d="m74.393 70.392a1.75 1.75 0 0 1 -.877-3.266c.173-.1 4.315-2.448 8.525-1.474a1.75 1.75 0 0 1 -.787 3.411c-2.851-.661-5.968 1.083-6 1.1a1.743 1.743 0 0 1 -.861.229z"/><path d="m53.61 70.394a1.743 1.743 0 0 1 -.865-.231c-.032-.017-3.152-1.762-6-1.1a1.75 1.75 0 0 1 -.787-3.411c4.208-.971 8.351 1.373 8.525 1.474a1.75 1.75 0 0 1 -.874 3.268z"/></g><path d="m22.76 38.719a14.232 14.232 0 1 0 -5.834 27.542z" fill="#efedff"/><path d="m105.24 38.719a14.232 14.232 0 1 1 5.834 27.542z" fill="#efedff"/></g></svg>